<svg xmlns="http://www.w3.org/2000/svg" version="1.1" xmlns:xlink="http://www.w3.org/1999/xlink" xmlns:svgjs="http://svgjs.dev/svgjs" width="2000" height="1358" viewBox="0 0 2000 1358"><g transform="matrix(1,0,0,1,-1.2121212121212466,-0.103522376513979)"><svg viewBox="0 0 396 269" data-background-color="#000000" preserveAspectRatio="xMidYMid meet" height="1358" width="2000" xmlns="http://www.w3.org/2000/svg" xmlns:xlink="http://www.w3.org/1999/xlink"><g id="tight-bounds" transform="matrix(1,0,0,1,0.2400000000000091,20.40973311599555)"><svg viewBox="0 0 395.52 247.2" height="247.2" width="395.52"><g><svg></svg></g><g><svg viewBox="0 0 395.52 247.2" height="247.2" width="395.52"><mask id="b232f0c1-64b6-4431-874f-65dbe61b9878"><rect width="640" height="400" fill="white"></rect><g transform="matrix(1,0,0,1,39.55199999999999,86.77630131189167)"><svg viewBox="0 0 316.416 73.64739737621666" height="73.64739737621666" width="316.416"><g><svg viewBox="0 0 316.416 73.64739737621666" height="73.64739737621666" width="316.416"><g><svg viewBox="0 0 316.416 73.64739737621666" height="73.64739737621666" width="316.416"><g><svg viewBox="0 0 316.416 73.64739737621666" height="73.64739737621666" width="316.416"><g id="SvgjsG8359"><svg viewBox="0 0 316.416 73.64739737621666" height="73.64739737621666" width="316.416" id="SvgjsSvg8358"><g><svg viewBox="0 0 316.416 73.64739737621666" height="73.64739737621666" width="316.416"><g transform="matrix(1,0,0,1,0,0)"><svg width="316.416" viewBox="0 -41 237.28 56" height="73.64739737621666" data-palette-color="#616975"><path d="M8.5 0L4 0 4-37 8.5-37 8.5-21.85Q9.9-23.9 12.05-25.25 14.2-26.6 17.1-26.6L17.1-26.6Q21.5-26.6 23.68-23.95 25.85-21.3 25.85-16.95L25.85-16.95 25.85 0 21.35 0 21.35-16.45Q21.35-19.25 20.05-20.95 18.75-22.65 16.4-22.65L16.4-22.65Q14.1-22.65 12.03-21.03 9.95-19.4 8.5-17.2L8.5-17.2 8.5 0ZM44.55 0.6L44.55 0.6Q40.85 0.6 37.9-1.13 34.95-2.85 33.27-5.93 31.6-9 31.6-13L31.6-13Q31.6-17.2 33.3-20.25 35-23.3 37.95-24.95 40.9-26.6 44.55-26.6L44.55-26.6Q48.2-26.6 51.12-24.95 54.05-23.3 55.77-20.28 57.5-17.25 57.5-13.1L57.5-13.1Q57.5-8.95 55.8-5.88 54.1-2.8 51.17-1.1 48.25 0.6 44.55 0.6ZM44.55-3.4L44.55-3.4Q48.5-3.4 50.7-6.08 52.9-8.75 52.9-13L52.9-13Q52.9-15.6 51.8-17.78 50.7-19.95 48.82-21.28 46.95-22.6 44.55-22.6L44.55-22.6Q40.6-22.6 38.4-20 36.2-17.4 36.2-13.1L36.2-13.1Q36.2-10.5 37.3-8.28 38.4-6.05 40.27-4.73 42.15-3.4 44.55-3.4ZM68 0L63.5 0 63.5-26 67.84-26 67.84-21.65Q69.25-23.75 71.4-25.18 73.55-26.6 76.3-26.6L76.3-26.6Q79.4-26.6 81.37-25.1 83.34-23.6 84.15-21.1L84.15-21.1Q85.7-23.4 87.82-25 89.95-26.6 93.09-26.6L93.09-26.6Q97.34-26.6 99.42-23.93 101.5-21.25 101.5-16.95L101.5-16.95 101.5 0 97 0 97-16.6Q97-19.3 95.75-20.98 94.5-22.65 92.3-22.65L92.3-22.65Q90.05-22.65 88.12-20.98 86.2-19.3 84.75-17.05L84.75-17.05 84.75 0 80.25 0 80.25-16.6Q80.25-19.3 79-20.98 77.75-22.65 75.55-22.65L75.55-22.65Q73.34-22.65 71.4-21.03 69.45-19.4 68-17.2L68-17.2 68 0ZM119.64 0.6L119.64 0.6Q114.04 0.6 110.77-2.98 107.49-6.55 107.49-13L107.49-13Q107.49-16.9 108.97-19.98 110.44-23.05 113.09-24.83 115.74-26.6 119.24-26.6L119.24-26.6Q122.99-26.6 125.47-24.98 127.94-23.35 129.19-20.6 130.44-17.85 130.44-14.55L130.44-14.55Q130.44-12.8 130.29-11.15L130.29-11.15 112.09-11.15Q112.54-7.5 114.64-5.45 116.74-3.4 120.19-3.4L120.19-3.4Q122.44-3.4 124.24-3.88 126.04-4.35 127.69-5.1L127.69-5.1 128.74-1.25Q126.94-0.45 124.69 0.08 122.44 0.6 119.64 0.6ZM112.04-14.8L112.04-14.8 126.29-14.8Q126.29-18.6 124.39-20.65 122.49-22.7 119.14-22.7L119.14-22.7Q116.24-22.7 114.34-20.68 112.44-18.65 112.04-14.8ZM141.89 11L137.39 11 137.39-19.35Q137.39-21.05 136.56-21.78 135.74-22.5 134.44-22.5L134.44-22.5 135.39-26Q139.99-26 141.14-22.35L141.14-22.35Q141.64-23.1 142.76-24.1 143.89-25.1 145.56-25.85 147.24-26.6 149.39-26.6L149.39-26.6Q152.39-26.6 155.01-25.03 157.64-23.45 159.24-20.48 160.84-17.5 160.84-13.25L160.84-13.25Q160.84-9.1 159.24-5.98 157.64-2.85 155.06-1.13 152.49 0.6 149.49 0.6L149.49 0.6Q147.19 0.6 145.19-0.33 143.19-1.25 141.89-2.45L141.89-2.45 141.89 11ZM148.59-3.4L148.59-3.4Q151.99-3.4 154.12-6.08 156.24-8.75 156.24-13.1L156.24-13.1Q156.24-16.1 155.16-18.25 154.09-20.4 152.31-21.55 150.54-22.7 148.39-22.7L148.39-22.7Q146.24-22.7 144.51-21.63 142.79-20.55 141.89-19.3L141.89-19.3 141.89-6.5Q143.19-5.15 144.89-4.28 146.59-3.4 148.59-3.4ZM178.04 0.6L178.04 0.6Q174.34 0.6 171.39-1.13 168.44-2.85 166.76-5.93 165.09-9 165.09-13L165.09-13Q165.09-17.2 166.79-20.25 168.49-23.3 171.44-24.95 174.39-26.6 178.04-26.6L178.04-26.6Q181.69-26.6 184.61-24.95 187.54-23.3 189.26-20.28 190.99-17.25 190.99-13.1L190.99-13.1Q190.99-8.95 189.29-5.88 187.59-2.8 184.66-1.1 181.74 0.6 178.04 0.6ZM178.04-3.4L178.04-3.4Q181.99-3.4 184.19-6.08 186.39-8.75 186.39-13L186.39-13Q186.39-15.6 185.29-17.78 184.19-19.95 182.31-21.28 180.44-22.6 178.04-22.6L178.04-22.6Q174.09-22.6 171.89-20 169.69-17.4 169.69-13.1L169.69-13.1Q169.69-10.5 170.79-8.28 171.89-6.05 173.76-4.73 175.64-3.4 178.04-3.4ZM201.49 0L196.99 0 196.99-26 201.34-26 201.34-20.35Q201.99-22 203.09-23.43 204.19-24.85 205.84-25.73 207.49-26.6 209.69-26.6L209.69-26.6Q210.44-26.6 211.19-26.53 211.94-26.45 212.44-26.3L212.44-26.3 211.09-21.65Q210.14-22.05 208.84-22.05L208.84-22.05Q206.99-22.05 205.31-21 203.64-19.95 202.56-17.75 201.49-15.55 201.49-12.15L201.49-12.15 201.49 0ZM227.03 0.6L227.03 0.6Q223.28 0.6 221.11-1.88 218.93-4.35 218.93-8.95L218.93-8.95 218.93-21.15 214.43-21.15 214.43-25.05 219.03-25.05 219.98-33.25 223.43-33.25 223.43-25.05 230.63-25.05 230.63-21.15 223.43-21.15 223.43-8.6Q223.43-5.7 224.66-4.55 225.88-3.4 227.58-3.4L227.58-3.4Q228.83-3.4 229.96-3.8 231.08-4.2 232.03-4.75L232.03-4.75 233.28-1.15Q232.28-0.55 230.58 0.03 228.88 0.6 227.03 0.6Z" opacity="1" transform="matrix(1,0,0,1,0,0)" fill="black" class="wordmark-text-0" id="SvgjsPath8357" stroke-width="7" stroke="black" stroke-linejoin="round"></path></svg></g></svg></g></svg></g></svg></g></svg></g></svg></g></svg></g></mask><g transform="matrix(1,0,0,1,39.55199999999999,86.77630131189167)"><svg viewBox="0 0 316.416 73.64739737621666" height="73.64739737621666" width="316.416"><g><svg viewBox="0 0 316.416 73.64739737621666" height="73.64739737621666" width="316.416"><g><svg viewBox="0 0 316.416 73.64739737621666" height="73.64739737621666" width="316.416"><g><svg viewBox="0 0 316.416 73.64739737621666" height="73.64739737621666" width="316.416"><g id="textblocktransform"><svg viewBox="0 0 316.416 73.64739737621666" height="73.64739737621666" width="316.416" id="textblock"><g><svg viewBox="0 0 316.416 73.64739737621666" height="73.64739737621666" width="316.416"><g transform="matrix(1,0,0,1,0,0)"><svg width="316.416" viewBox="0 -41 237.28 56" height="73.64739737621666" data-palette-color="#616975"><path d="M8.5 0L4 0 4-37 8.5-37 8.5-21.85Q9.9-23.9 12.05-25.25 14.2-26.6 17.1-26.6L17.1-26.6Q21.5-26.6 23.68-23.95 25.85-21.3 25.85-16.95L25.85-16.95 25.85 0 21.35 0 21.35-16.45Q21.35-19.25 20.05-20.95 18.75-22.65 16.4-22.65L16.4-22.65Q14.1-22.65 12.03-21.03 9.95-19.4 8.5-17.2L8.5-17.2 8.5 0ZM44.55 0.6L44.55 0.6Q40.85 0.6 37.9-1.13 34.95-2.85 33.27-5.93 31.6-9 31.6-13L31.6-13Q31.6-17.2 33.3-20.25 35-23.3 37.95-24.95 40.9-26.6 44.55-26.6L44.55-26.6Q48.2-26.6 51.12-24.95 54.05-23.3 55.77-20.28 57.5-17.25 57.5-13.1L57.5-13.1Q57.5-8.95 55.8-5.88 54.1-2.8 51.17-1.1 48.25 0.6 44.55 0.6ZM44.55-3.4L44.55-3.4Q48.5-3.4 50.7-6.08 52.9-8.75 52.9-13L52.9-13Q52.9-15.6 51.8-17.78 50.7-19.95 48.82-21.28 46.95-22.6 44.55-22.6L44.55-22.6Q40.6-22.6 38.4-20 36.2-17.4 36.2-13.1L36.2-13.1Q36.2-10.5 37.3-8.28 38.4-6.05 40.27-4.73 42.15-3.4 44.55-3.4ZM68 0L63.5 0 63.5-26 67.84-26 67.84-21.65Q69.25-23.75 71.4-25.18 73.55-26.6 76.3-26.6L76.3-26.6Q79.4-26.6 81.37-25.1 83.34-23.6 84.15-21.1L84.15-21.1Q85.7-23.4 87.82-25 89.95-26.6 93.09-26.6L93.09-26.6Q97.34-26.6 99.42-23.93 101.5-21.25 101.5-16.95L101.5-16.95 101.5 0 97 0 97-16.6Q97-19.3 95.75-20.98 94.5-22.65 92.3-22.65L92.3-22.65Q90.05-22.65 88.12-20.98 86.2-19.3 84.75-17.05L84.75-17.05 84.75 0 80.25 0 80.25-16.6Q80.25-19.3 79-20.98 77.75-22.65 75.55-22.65L75.55-22.65Q73.34-22.65 71.4-21.03 69.45-19.4 68-17.2L68-17.2 68 0ZM119.64 0.6L119.64 0.6Q114.04 0.6 110.77-2.98 107.49-6.55 107.49-13L107.49-13Q107.49-16.9 108.97-19.98 110.44-23.05 113.09-24.83 115.74-26.6 119.24-26.6L119.24-26.6Q122.99-26.6 125.47-24.98 127.94-23.35 129.19-20.6 130.44-17.85 130.44-14.55L130.44-14.55Q130.44-12.8 130.29-11.15L130.29-11.15 112.09-11.15Q112.54-7.5 114.64-5.45 116.74-3.4 120.19-3.4L120.19-3.4Q122.44-3.4 124.24-3.88 126.04-4.35 127.69-5.1L127.69-5.1 128.74-1.25Q126.94-0.45 124.69 0.08 122.44 0.6 119.64 0.6ZM112.04-14.8L112.04-14.8 126.29-14.8Q126.29-18.6 124.39-20.65 122.49-22.7 119.14-22.7L119.14-22.7Q116.24-22.7 114.34-20.68 112.44-18.65 112.04-14.8ZM141.89 11L137.39 11 137.39-19.35Q137.39-21.05 136.56-21.78 135.74-22.5 134.44-22.5L134.44-22.5 135.39-26Q139.99-26 141.14-22.35L141.14-22.35Q141.64-23.1 142.76-24.1 143.89-25.1 145.56-25.85 147.24-26.6 149.39-26.6L149.39-26.6Q152.39-26.6 155.01-25.03 157.64-23.45 159.24-20.48 160.84-17.5 160.84-13.25L160.84-13.25Q160.84-9.1 159.24-5.98 157.64-2.85 155.06-1.13 152.49 0.6 149.49 0.6L149.49 0.6Q147.19 0.6 145.19-0.33 143.19-1.25 141.89-2.45L141.89-2.45 141.89 11ZM148.59-3.4L148.59-3.4Q151.99-3.4 154.12-6.08 156.24-8.75 156.24-13.1L156.24-13.1Q156.24-16.1 155.16-18.25 154.09-20.4 152.31-21.55 150.54-22.7 148.39-22.7L148.39-22.7Q146.24-22.7 144.51-21.63 142.79-20.55 141.89-19.3L141.89-19.3 141.89-6.5Q143.19-5.15 144.89-4.28 146.59-3.4 148.59-3.4ZM178.04 0.6L178.04 0.6Q174.34 0.6 171.39-1.13 168.44-2.85 166.76-5.93 165.09-9 165.09-13L165.09-13Q165.09-17.2 166.79-20.25 168.49-23.3 171.44-24.95 174.39-26.6 178.04-26.6L178.04-26.6Q181.69-26.6 184.61-24.95 187.54-23.3 189.26-20.28 190.99-17.25 190.99-13.1L190.99-13.1Q190.99-8.95 189.29-5.88 187.59-2.8 184.66-1.1 181.74 0.6 178.04 0.6ZM178.04-3.4L178.04-3.4Q181.99-3.4 184.19-6.08 186.39-8.75 186.39-13L186.39-13Q186.39-15.6 185.29-17.78 184.19-19.95 182.31-21.28 180.44-22.6 178.04-22.6L178.04-22.6Q174.09-22.6 171.89-20 169.69-17.4 169.69-13.1L169.69-13.1Q169.69-10.5 170.79-8.28 171.89-6.05 173.76-4.73 175.64-3.4 178.04-3.4ZM201.49 0L196.99 0 196.99-26 201.34-26 201.34-20.35Q201.99-22 203.09-23.43 204.19-24.85 205.84-25.73 207.49-26.6 209.69-26.6L209.69-26.6Q210.44-26.6 211.19-26.53 211.94-26.45 212.44-26.3L212.44-26.3 211.09-21.65Q210.14-22.05 208.84-22.05L208.84-22.05Q206.99-22.05 205.31-21 203.64-19.95 202.56-17.75 201.49-15.55 201.49-12.15L201.49-12.15 201.49 0ZM227.03 0.6L227.03 0.6Q223.28 0.6 221.11-1.88 218.93-4.35 218.93-8.95L218.93-8.95 218.93-21.15 214.43-21.15 214.43-25.05 219.03-25.05 219.98-33.25 223.43-33.25 223.43-25.05 230.63-25.05 230.63-21.15 223.43-21.15 223.43-8.6Q223.43-5.7 224.66-4.55 225.88-3.4 227.58-3.4L227.58-3.4Q228.83-3.4 229.96-3.8 231.08-4.2 232.03-4.75L232.03-4.75 233.28-1.15Q232.28-0.55 230.58 0.03 228.88 0.6 227.03 0.6Z" opacity="1" transform="matrix(1,0,0,1,0,0)" fill="#000000" class="wordmark-text-0" data-fill-palette-color="primary" id="text-0"></path></svg></g></svg></g></svg></g></svg></g></svg></g></svg></g></svg></g><g mask="url(#b232f0c1-64b6-4431-874f-65dbe61b9878)"><g transform="matrix(11.841290204697787, 0, 0, 11.841290204697787, 94.54539393075173, 1)"><svg xmlns="http://www.w3.org/2000/svg" xmlns:xlink="http://www.w3.org/1999/xlink" xml:space="preserve" style="shape-rendering:geometricPrecision;text-rendering:geometricPrecision;image-rendering:optimizeQuality;" viewBox="0 0 17.433 20.707202995727776" x="0" y="0" fill-rule="evenodd" clip-rule="evenodd" id="none" width="17.433" height="20.707202995727776" class="icon-none" data-fill-palette-color="accent"><g fill="#ffffff" data-fill-palette-color="accent"><path class="" d="M8.717 0A8.717 8.717 0 0 1 17.433 8.717C17.433 13.65 12.503 17.212 9.053 20.569A0.48 0.48 0 0 1 8.38 20.57C4.93 17.212 0 13.65 0 8.717A8.717 8.717 0 0 1 8.717 0M5.437 7.629C6.496 6.336 7.602 6.902 8.73 7.479 10.06 8.162 11.415 8.855 12.968 7.735A0.596 0.596 0 1 0 12.272 6.767C11.308 7.461 10.282 6.937 9.272 6.42 7.71 5.62 6.18 4.837 4.512 6.872A0.598 0.598 0 0 0 5.437 7.629M9.272 9.372C7.71 8.572 6.18 7.79 4.512 9.825A0.597 0.597 0 0 0 5.437 10.582C6.496 9.289 7.602 9.855 8.73 10.432 10.06 11.114 11.415 11.807 12.968 10.687A0.596 0.596 0 1 0 12.272 9.72C11.308 10.414 10.282 9.889 9.272 9.372M9.067 0.895A0.12 0.12 0 1 1 9.004 1.12 7.817 7.817 0 0 0 0.925 8.702L0.923 8.7A0.113 0.113 0 1 1 0.725 8.686 7.817 7.817 0 0 1 9.022 0.904H9.02A0.1 0.1 0 0 1 9.067 0.896M8.717 2.311A6.405 6.405 0 1 1 8.717 15.121 6.405 6.405 0 0 1 8.717 2.312" fill="#000000" data-fill-palette-color="accent"></path></g></svg></g></g></svg></g><defs></defs></svg><rect width="395.52" height="247.2" fill="none" stroke="none" visibility="hidden"></rect></g></svg></g></svg>